<mxfile host="app.diagrams.net" modified="2023-10-26T21:59:15.095Z" agent="Mozilla/5.0 (Windows NT 10.0; Win64; x64) AppleWebKit/537.36 (KHTML, like Gecko) Chrome/117.0.0.0 Safari/537.36" etag="EFVcTGOZi1u8RfnXtZrd" version="22.0.8" type="github">
  <diagram name="Page-1" id="b5b7bab2-c9e2-2cf4-8b2a-24fd1a2a6d21">
    <mxGraphModel dx="3382" dy="958" grid="1" gridSize="10" guides="1" tooltips="1" connect="1" arrows="1" fold="1" page="1" pageScale="1" pageWidth="827" pageHeight="1169" background="none" math="0" shadow="0">
      <root>
        <mxCell id="0" />
        <mxCell id="1" parent="0" />
        <mxCell id="cKeQ6S0oiYJnXy505rPp-26" value="" style="swimlane;startSize=0;" parent="1" vertex="1">
          <mxGeometry x="-1120" y="200" width="1250" height="200" as="geometry" />
        </mxCell>
        <mxCell id="cKeQ6S0oiYJnXy505rPp-66" value="Пользовательский слой" style="whiteSpace=wrap;html=1;" parent="cKeQ6S0oiYJnXy505rPp-26" vertex="1">
          <mxGeometry width="120" height="60" as="geometry" />
        </mxCell>
        <mxCell id="cKeQ6S0oiYJnXy505rPp-74" value="&amp;nbsp;пользовательский интерфейс" style="html=1;whiteSpace=wrap;" parent="cKeQ6S0oiYJnXy505rPp-26" vertex="1">
          <mxGeometry x="560" y="120" width="110" height="50" as="geometry" />
        </mxCell>
        <mxCell id="cKeQ6S0oiYJnXy505rPp-46" value="Клиент" style="shape=umlActor;verticalLabelPosition=bottom;verticalAlign=top;html=1;" parent="1" vertex="1">
          <mxGeometry x="-810" y="281" width="30" height="60" as="geometry" />
        </mxCell>
        <mxCell id="cKeQ6S0oiYJnXy505rPp-53" value="" style="html=1;verticalAlign=bottom;endArrow=block;curved=0;rounded=0;entryX=0;entryY=0.5;entryDx=0;entryDy=0;" parent="1" target="cKeQ6S0oiYJnXy505rPp-74" edge="1">
          <mxGeometry width="80" relative="1" as="geometry">
            <mxPoint x="-760" y="350" as="sourcePoint" />
            <mxPoint x="-715" y="487" as="targetPoint" />
          </mxGeometry>
        </mxCell>
        <mxCell id="cKeQ6S0oiYJnXy505rPp-60" value="Таксист" style="shape=umlActor;verticalLabelPosition=bottom;verticalAlign=top;html=1;" parent="1" vertex="1">
          <mxGeometry x="-130" y="281" width="30" height="60" as="geometry" />
        </mxCell>
        <mxCell id="cKeQ6S0oiYJnXy505rPp-62" value="" style="html=1;verticalAlign=bottom;endArrow=block;curved=0;rounded=0;entryX=1;entryY=0.5;entryDx=0;entryDy=0;" parent="1" target="cKeQ6S0oiYJnXy505rPp-74" edge="1">
          <mxGeometry width="80" relative="1" as="geometry">
            <mxPoint x="-180" y="360" as="sourcePoint" />
            <mxPoint x="-195" y="476.5" as="targetPoint" />
          </mxGeometry>
        </mxCell>
        <mxCell id="cKeQ6S0oiYJnXy505rPp-67" value="" style="swimlane;startSize=0;" parent="1" vertex="1">
          <mxGeometry x="-1120" y="440" width="1250" height="250" as="geometry" />
        </mxCell>
        <mxCell id="cKeQ6S0oiYJnXy505rPp-75" value="модуль геолокации" style="html=1;whiteSpace=wrap;" parent="cKeQ6S0oiYJnXy505rPp-67" vertex="1">
          <mxGeometry x="630" y="145" width="110" height="50" as="geometry" />
        </mxCell>
        <mxCell id="cKeQ6S0oiYJnXy505rPp-76" value="модуль обработки платежей" style="html=1;whiteSpace=wrap;" parent="cKeQ6S0oiYJnXy505rPp-67" vertex="1">
          <mxGeometry x="470" y="140" width="110" height="50" as="geometry" />
        </mxCell>
        <mxCell id="cKeQ6S0oiYJnXy505rPp-77" value="модуль истории поездок клиента" style="html=1;whiteSpace=wrap;" parent="cKeQ6S0oiYJnXy505rPp-67" vertex="1">
          <mxGeometry x="140" y="145" width="110" height="50" as="geometry" />
        </mxCell>
        <mxCell id="cKeQ6S0oiYJnXy505rPp-78" value="модуль истории поездок водителя" style="html=1;whiteSpace=wrap;" parent="cKeQ6S0oiYJnXy505rPp-67" vertex="1">
          <mxGeometry x="920" y="140" width="110" height="50" as="geometry" />
        </mxCell>
        <mxCell id="cKeQ6S0oiYJnXy505rPp-48" value="модуль регистрации и авторизации" style="html=1;whiteSpace=wrap;" parent="cKeQ6S0oiYJnXy505rPp-67" vertex="1">
          <mxGeometry x="300" y="150" width="110" height="50" as="geometry" />
        </mxCell>
        <mxCell id="cKeQ6S0oiYJnXy505rPp-80" value="модуль регистрации и авторизации" style="html=1;whiteSpace=wrap;" parent="cKeQ6S0oiYJnXy505rPp-67" vertex="1">
          <mxGeometry x="780" y="145" width="110" height="50" as="geometry" />
        </mxCell>
        <mxCell id="cKeQ6S0oiYJnXy505rPp-84" value="Слой бизнес-логики" style="whiteSpace=wrap;html=1;" parent="cKeQ6S0oiYJnXy505rPp-67" vertex="1">
          <mxGeometry width="120" height="60" as="geometry" />
        </mxCell>
        <mxCell id="cKeQ6S0oiYJnXy505rPp-85" value="" style="html=1;verticalAlign=bottom;endArrow=block;curved=0;rounded=0;entryX=0.5;entryY=0;entryDx=0;entryDy=0;exitX=0;exitY=1;exitDx=0;exitDy=0;" parent="1" source="cKeQ6S0oiYJnXy505rPp-74" target="cKeQ6S0oiYJnXy505rPp-77" edge="1">
          <mxGeometry width="80" relative="1" as="geometry">
            <mxPoint x="-590" y="500" as="sourcePoint" />
            <mxPoint x="-390" y="495" as="targetPoint" />
          </mxGeometry>
        </mxCell>
        <mxCell id="cKeQ6S0oiYJnXy505rPp-86" value="" style="html=1;verticalAlign=bottom;endArrow=block;curved=0;rounded=0;entryX=0.5;entryY=0;entryDx=0;entryDy=0;exitX=0.103;exitY=1.04;exitDx=0;exitDy=0;exitPerimeter=0;" parent="1" source="cKeQ6S0oiYJnXy505rPp-74" target="cKeQ6S0oiYJnXy505rPp-48" edge="1">
          <mxGeometry width="80" relative="1" as="geometry">
            <mxPoint x="-455" y="390" as="sourcePoint" />
            <mxPoint x="-820" y="605" as="targetPoint" />
          </mxGeometry>
        </mxCell>
        <mxCell id="cKeQ6S0oiYJnXy505rPp-87" value="" style="html=1;verticalAlign=bottom;endArrow=block;curved=0;rounded=0;entryX=0.5;entryY=0;entryDx=0;entryDy=0;exitX=0.25;exitY=1;exitDx=0;exitDy=0;" parent="1" source="cKeQ6S0oiYJnXy505rPp-74" target="cKeQ6S0oiYJnXy505rPp-76" edge="1">
          <mxGeometry width="80" relative="1" as="geometry">
            <mxPoint x="-485" y="376.5" as="sourcePoint" />
            <mxPoint x="-690" y="596.5" as="targetPoint" />
          </mxGeometry>
        </mxCell>
        <mxCell id="cKeQ6S0oiYJnXy505rPp-88" value="" style="html=1;verticalAlign=bottom;endArrow=block;curved=0;rounded=0;entryX=0.5;entryY=0;entryDx=0;entryDy=0;exitX=0.5;exitY=1;exitDx=0;exitDy=0;" parent="1" source="cKeQ6S0oiYJnXy505rPp-74" target="cKeQ6S0oiYJnXy505rPp-75" edge="1">
          <mxGeometry width="80" relative="1" as="geometry">
            <mxPoint x="-463.5" y="375" as="sourcePoint" />
            <mxPoint x="-526.5" y="585" as="targetPoint" />
          </mxGeometry>
        </mxCell>
        <mxCell id="cKeQ6S0oiYJnXy505rPp-89" value="" style="html=1;verticalAlign=bottom;endArrow=block;curved=0;rounded=0;entryX=0.5;entryY=0;entryDx=0;entryDy=0;exitX=0.75;exitY=1;exitDx=0;exitDy=0;" parent="1" source="cKeQ6S0oiYJnXy505rPp-74" target="cKeQ6S0oiYJnXy505rPp-80" edge="1">
          <mxGeometry width="80" relative="1" as="geometry">
            <mxPoint x="-430" y="375" as="sourcePoint" />
            <mxPoint x="-360" y="590" as="targetPoint" />
          </mxGeometry>
        </mxCell>
        <mxCell id="cKeQ6S0oiYJnXy505rPp-90" value="" style="html=1;verticalAlign=bottom;endArrow=block;curved=0;rounded=0;entryX=0.5;entryY=0;entryDx=0;entryDy=0;exitX=1;exitY=1;exitDx=0;exitDy=0;" parent="1" source="cKeQ6S0oiYJnXy505rPp-74" target="cKeQ6S0oiYJnXy505rPp-78" edge="1">
          <mxGeometry width="80" relative="1" as="geometry">
            <mxPoint x="-410" y="362.5" as="sourcePoint" />
            <mxPoint x="-218" y="577.5" as="targetPoint" />
          </mxGeometry>
        </mxCell>
        <mxCell id="cKeQ6S0oiYJnXy505rPp-95" value="" style="swimlane;startSize=0;" parent="1" vertex="1">
          <mxGeometry x="-1120" y="760" width="1250" height="250" as="geometry" />
        </mxCell>
        <mxCell id="cKeQ6S0oiYJnXy505rPp-102" value="Слой базы данных" style="whiteSpace=wrap;html=1;" parent="cKeQ6S0oiYJnXy505rPp-95" vertex="1">
          <mxGeometry width="120" height="60" as="geometry" />
        </mxCell>
        <mxCell id="cKeQ6S0oiYJnXy505rPp-91" value="Водители" style="shape=cylinder3;whiteSpace=wrap;html=1;boundedLbl=1;backgroundOutline=1;size=15;" parent="cKeQ6S0oiYJnXy505rPp-95" vertex="1">
          <mxGeometry x="325" y="70" width="60" height="60" as="geometry" />
        </mxCell>
        <mxCell id="cKeQ6S0oiYJnXy505rPp-92" value="Клиенты" style="shape=cylinder3;whiteSpace=wrap;html=1;boundedLbl=1;backgroundOutline=1;size=15;" parent="cKeQ6S0oiYJnXy505rPp-95" vertex="1">
          <mxGeometry x="495" y="70" width="60" height="60" as="geometry" />
        </mxCell>
        <mxCell id="cKeQ6S0oiYJnXy505rPp-93" value="Поездки" style="shape=cylinder3;whiteSpace=wrap;html=1;boundedLbl=1;backgroundOutline=1;size=15;" parent="cKeQ6S0oiYJnXy505rPp-95" vertex="1">
          <mxGeometry x="680" y="70" width="60" height="60" as="geometry" />
        </mxCell>
        <mxCell id="cKeQ6S0oiYJnXy505rPp-117" value="" style="endArrow=classic;startArrow=classic;html=1;rounded=0;exitX=1;exitY=0;exitDx=0;exitDy=37.5;exitPerimeter=0;entryX=0;entryY=0;entryDx=0;entryDy=37.5;entryPerimeter=0;" parent="cKeQ6S0oiYJnXy505rPp-95" source="cKeQ6S0oiYJnXy505rPp-92" target="cKeQ6S0oiYJnXy505rPp-93" edge="1">
          <mxGeometry width="50" height="50" relative="1" as="geometry">
            <mxPoint x="620" y="210" as="sourcePoint" />
            <mxPoint x="670" y="160" as="targetPoint" />
          </mxGeometry>
        </mxCell>
        <mxCell id="cKeQ6S0oiYJnXy505rPp-118" value="" style="endArrow=classic;startArrow=classic;html=1;rounded=0;exitX=1;exitY=0;exitDx=0;exitDy=37.5;exitPerimeter=0;entryX=0;entryY=0;entryDx=0;entryDy=37.5;entryPerimeter=0;" parent="cKeQ6S0oiYJnXy505rPp-95" source="cKeQ6S0oiYJnXy505rPp-91" target="cKeQ6S0oiYJnXy505rPp-92" edge="1">
          <mxGeometry width="50" height="50" relative="1" as="geometry">
            <mxPoint x="420" y="150" as="sourcePoint" />
            <mxPoint x="470" y="100" as="targetPoint" />
          </mxGeometry>
        </mxCell>
        <mxCell id="cKeQ6S0oiYJnXy505rPp-119" value="" style="endArrow=classic;startArrow=classic;html=1;rounded=0;exitX=0.5;exitY=0;exitDx=0;exitDy=0;exitPerimeter=0;entryX=0.5;entryY=1;entryDx=0;entryDy=0;" parent="1" source="cKeQ6S0oiYJnXy505rPp-92" target="cKeQ6S0oiYJnXy505rPp-76" edge="1">
          <mxGeometry width="50" height="50" relative="1" as="geometry">
            <mxPoint x="-620" y="770" as="sourcePoint" />
            <mxPoint x="-570" y="720" as="targetPoint" />
          </mxGeometry>
        </mxCell>
        <mxCell id="cKeQ6S0oiYJnXy505rPp-120" value="" style="endArrow=classic;startArrow=classic;html=1;rounded=0;entryX=0.5;entryY=1;entryDx=0;entryDy=0;exitX=0.5;exitY=0;exitDx=0;exitDy=0;exitPerimeter=0;" parent="1" source="cKeQ6S0oiYJnXy505rPp-91" target="cKeQ6S0oiYJnXy505rPp-77" edge="1">
          <mxGeometry width="50" height="50" relative="1" as="geometry">
            <mxPoint x="-930" y="730" as="sourcePoint" />
            <mxPoint x="-880" y="680" as="targetPoint" />
          </mxGeometry>
        </mxCell>
        <mxCell id="cKeQ6S0oiYJnXy505rPp-121" value="" style="endArrow=classic;startArrow=classic;html=1;rounded=0;entryX=0.558;entryY=0.973;entryDx=0;entryDy=0;entryPerimeter=0;exitX=0.5;exitY=0;exitDx=0;exitDy=0;exitPerimeter=0;" parent="1" source="cKeQ6S0oiYJnXy505rPp-93" target="cKeQ6S0oiYJnXy505rPp-75" edge="1">
          <mxGeometry width="50" height="50" relative="1" as="geometry">
            <mxPoint x="-400" y="700" as="sourcePoint" />
            <mxPoint x="-350" y="650" as="targetPoint" />
          </mxGeometry>
        </mxCell>
        <mxCell id="cKeQ6S0oiYJnXy505rPp-122" value="" style="endArrow=classic;startArrow=classic;html=1;rounded=0;entryX=0.5;entryY=1;entryDx=0;entryDy=0;exitX=0.5;exitY=0;exitDx=0;exitDy=0;exitPerimeter=0;" parent="1" source="cKeQ6S0oiYJnXy505rPp-92" target="cKeQ6S0oiYJnXy505rPp-48" edge="1">
          <mxGeometry width="50" height="50" relative="1" as="geometry">
            <mxPoint x="-720" y="770" as="sourcePoint" />
            <mxPoint x="-670" y="720" as="targetPoint" />
          </mxGeometry>
        </mxCell>
        <mxCell id="cKeQ6S0oiYJnXy505rPp-123" value="" style="endArrow=classic;startArrow=classic;html=1;rounded=0;entryX=0.5;entryY=1;entryDx=0;entryDy=0;exitX=0.5;exitY=0;exitDx=0;exitDy=0;exitPerimeter=0;" parent="1" source="cKeQ6S0oiYJnXy505rPp-93" target="cKeQ6S0oiYJnXy505rPp-80" edge="1">
          <mxGeometry width="50" height="50" relative="1" as="geometry">
            <mxPoint x="-330" y="770" as="sourcePoint" />
            <mxPoint x="-280" y="720" as="targetPoint" />
          </mxGeometry>
        </mxCell>
        <mxCell id="cKeQ6S0oiYJnXy505rPp-124" value="" style="endArrow=classic;startArrow=classic;html=1;rounded=0;entryX=0.5;entryY=1;entryDx=0;entryDy=0;exitX=0.5;exitY=0;exitDx=0;exitDy=0;exitPerimeter=0;" parent="1" source="cKeQ6S0oiYJnXy505rPp-93" target="cKeQ6S0oiYJnXy505rPp-78" edge="1">
          <mxGeometry width="50" height="50" relative="1" as="geometry">
            <mxPoint x="-270" y="770" as="sourcePoint" />
            <mxPoint x="-220" y="720" as="targetPoint" />
          </mxGeometry>
        </mxCell>
      </root>
    </mxGraphModel>
  </diagram>
</mxfile>
